<svg xmlns="http://www.w3.org/2000/svg" viewBox="0 0 496.82 536.41"><defs><style>.cls-1{fill:#00abf0;}</style></defs><g id="Layer_2" data-name="Layer 2"><g id="Layer_1-2" data-name="Layer 1"><path class="cls-1" d="M49.19,155.17c9.11-4.27,18.88-7.42,28.51-10.38,90.4-27.72,187-47.74,260.41-107.3C354.33,24.33,369.84,9,389.78,2.83,419-6.25,452.1,7.41,471.39,31.12s26.28,55.54,25.35,86.09-9.08,60.36-17.18,89.83c-20,72.61-40,145.35-66.79,215.7C401.38,452.6,388,483.06,364,504.18c-36.4,32.05-89.79,36.05-137.87,29.67a403.27,403.27,0,0,1-94.84-24.62c-27.64-10.9-48.62-31-65.78-54.74a347.91,347.91,0,0,1-63.46-164A331.13,331.13,0,0,1,0,253.23c0-30.5,5.49-63.71,28-84.31A83.63,83.63,0,0,1,49.19,155.17Z"/></g></g></svg>